<svg xmlns="http://www.w3.org/2000/svg" viewBox="0 0 222.334 222.334" style="enable-background:new 0 0 222.334 222.334" xml:space="preserve"><path d="M24.704 82.346a4.116 4.116 0 0 0-4.117 4.117v49.581a4.117 4.117 0 1 0 8.234 0V86.463a4.117 4.117 0 0 0-4.117-4.117zM41.173 53.525a4.116 4.116 0 0 0-4.117 4.117v49.581a4.116 4.116 0 0 0 4.117 4.117 4.116 4.116 0 0 0 4.117-4.117V57.642a4.116 4.116 0 0 0-4.117-4.117zM41.173 119.402a4.116 4.116 0 0 0-4.117 4.117V173.1a4.116 4.116 0 0 0 4.117 4.117 4.116 4.116 0 0 0 4.117-4.117v-49.581a4.116 4.116 0 0 0-4.117-4.117zM57.642 37.056a4.116 4.116 0 0 0-4.117 4.117v49.581a4.116 4.116 0 0 0 4.117 4.117 4.116 4.116 0 0 0 4.117-4.117V41.173a4.115 4.115 0 0 0-4.117-4.117zM57.642 102.933a4.116 4.116 0 0 0-4.117 4.117v78.229a4.116 4.116 0 0 0 4.117 4.117 4.116 4.116 0 0 0 4.117-4.117V107.05a4.115 4.115 0 0 0-4.117-4.117zM90.581 119.402a4.116 4.116 0 0 0-4.117 4.117v78.229a4.116 4.116 0 0 0 4.117 4.117 4.116 4.116 0 0 0 4.117-4.117v-78.229a4.117 4.117 0 0 0-4.117-4.117zM107.05 123.519a4.116 4.116 0 0 0-4.117 4.117v28.821a4.116 4.116 0 0 0 4.117 4.117 4.116 4.116 0 0 0 4.117-4.117v-28.821a4.116 4.116 0 0 0-4.117-4.117zM107.05 16.469a4.116 4.116 0 0 0-4.117 4.117v90.581a4.116 4.116 0 0 0 4.117 4.117 4.116 4.116 0 0 0 4.117-4.117v-90.58a4.116 4.116 0 0 0-4.117-4.118zM107.05 168.81a4.116 4.116 0 0 0-4.117 4.117v28.821a4.116 4.116 0 0 0 4.117 4.117 4.116 4.116 0 0 0 4.117-4.117v-28.821a4.115 4.115 0 0 0-4.117-4.117zM74.111 82.346a4.116 4.116 0 0 0-4.117 4.117v53.525a4.117 4.117 0 1 0 8.234 0V86.463a4.115 4.115 0 0 0-4.117-4.117zM90.581 86.463a4.116 4.116 0 0 0-4.117 4.117v16.469a4.116 4.116 0 0 0 4.117 4.117 4.116 4.116 0 0 0 4.117-4.117V90.581a4.117 4.117 0 0 0-4.117-4.118zM90.581 20.587a4.116 4.116 0 0 0-4.117 4.117v49.408a4.116 4.116 0 0 0 4.117 4.117 4.116 4.116 0 0 0 4.117-4.117V24.704a4.116 4.116 0 0 0-4.117-4.117zM74.111 152.34a4.116 4.116 0 0 0-4.117 4.117v37.056a4.117 4.117 0 1 0 8.234 0v-37.056a4.115 4.115 0 0 0-4.117-4.117zM74.111 28.821a4.116 4.116 0 0 0-4.117 4.117v37.056a4.117 4.117 0 1 0 8.234 0V32.938a4.115 4.115 0 0 0-4.117-4.117z"/><path d="M111.167 0C49.87 0 0 49.87 0 111.167s49.87 111.167 111.167 111.167 111.167-49.87 111.167-111.167S172.464 0 111.167 0zm0 214.1c-56.758 0-102.933-46.175-102.933-102.933S54.409 8.235 111.167 8.235 214.1 54.409 214.1 111.167 167.925 214.1 111.167 214.1z"/></svg>